# xmcd
#
# Track frame offsets:
#	150
#	11150
#	22250
#	34075
#	40737
#	49437
#	59737
#	71537
#	81937
#	92650
#	101050
#	110925
#
# Disc length: 1615 seconds
#
# Revision: 0
# Processed by: cddbd v1.4PL0 Copyright (c) Steve Scherf et al.
# Submitted via: EasyCDDAExtractor 4.5.0.2
#
DISCID=af064d0c
DTITLE=Waylon Jennings - Burning Memories
DYEAR=1900
DGENRE=Country
TTITLE0=Sally Was A Good Old Girl
TTITLE1=Big Mamou
TTITLE2=Don't Think Twice
TTITLE3=It's so Easy
TTITLE4=Love's Gonna Live Here
TTITLE5=White Lightning
TTITLE6=Crying
TTITLE7=Burning Memories
TTITLE8=Dream Baby
TTITLE9=Abilene
TTITLE10=When Sin Stops
TTITLE11=Money
EXTD=
EXTT0=
EXTT1=
EXTT2=
EXTT3=
EXTT4=
EXTT5=
EXTT6=
EXTT7=
EXTT8=
EXTT9=
EXTT10=
EXTT11=
PLAYORDER=
